<svg xmlns="http://www.w3.org/2000/svg" width="1240" height="1240"><path d="M425 188.47c-50.664 6.62-94.701 28.194-130.59 63.976-22.225 22.159-36.597 43.374-48.413 71.465-8.424 20.026-12.943 35.738-16.421 57.089-1.662 10.203-2.405 33.124-1.509 46.51 1.863 27.815 5.758 44.661 16.582 71.724 11.903 29.76 27.331 53.086 49.78 75.266 18.451 18.23 34.838 29.947 57.913 41.407C385.014 632.134 418.371 640 454.508 640c60.508 0 113.951-21.826 159.759-65.243l9.766-9.257-44.284-43.603-44.283-43.604-8.983 8.48c-15.411 14.549-29.038 22.254-47.483 26.85-22.228 5.538-50.12 2.766-69.5-6.907-19.083-9.525-37.986-28.023-47.228-46.216-17.447-34.347-14.246-76.914 8.059-107.171 5.831-7.911 18.604-20.507 25.669-25.313 28.76-19.568 63.856-23.123 98.057-9.934 10.764 4.151 21.228 11.321 32.966 22.587 9.041 8.677 9.797 9.186 11.25 7.567.857-.955 17.975-23.278 38.041-49.607l36.484-47.871-7.149-6.479c-9.084-8.233-26.537-20.949-38.15-27.796-21.167-12.479-47.099-21.984-72.619-26.617-14.834-2.693-53.971-3.475-69.88-1.396m359 7.179c-11.452.761-22.423 2.785-32.864 6.063-48.733 15.299-85.699 57.38-94.248 107.288-1.651 9.638-1.682 36.314-.054 45.997 7.175 42.662 34.635 80.197 72.328 98.864 14.267 7.066 18.693 8.477 74.338 23.709 46.877 12.831 49.135 13.557 52.107 16.75 4.332 4.654 5.093 9.603 2.348 15.273-3.845 7.942 3.694 7.407-104.405 7.407H657v124.086l104.25-.384c113.38-.419 108.912-.202 127.25-6.168 36.765-11.96 68.996-42.077 84.273-78.744 11.858-28.46 13.249-64.198 3.645-93.586-8.998-27.534-23.681-48.961-45.212-65.978-21.261-16.803-27.965-19.461-94.165-37.318-26.652-7.19-49.674-13.701-51.161-14.47-4.795-2.48-6.88-6.143-6.88-12.088 0-4.677.425-5.842 3.25-8.918 2.058-2.24 4.717-3.876 7.25-4.461 2.25-.519 36.709-.934 78.75-.947L943 318V195l-77.25.175c-42.487.096-79.275.309-81.75.474m-347 15.984c-1.375.199-6.55.851-11.5 1.449-25.873 3.127-58.953 15.509-82.176 30.759-23.025 15.121-46.682 39.454-61.35 63.104-29.095 46.911-37.52 103.155-23.601 157.555 8.981 35.099 26.053 64.626 53.046 91.747 13.135 13.197 23.193 21.207 38.057 30.308 43.75 26.785 95.89 35.509 148.37 24.824 29.606-6.027 58.092-19.744 83.404-40.16 3.712-2.994 6.75-5.734 6.75-6.089 0-.354-11.812-12.426-26.25-26.826l-26.25-26.181-7.131 5.265c-13.548 10.003-31.542 17.801-49.094 21.275-11.989 2.373-39.695 2.364-50.275-.017-25.903-5.828-45.957-16.954-64.667-35.878-15.164-15.338-24.706-30.662-31.372-50.382-8.427-24.931-7.88-57.959 1.367-82.526 11.291-29.996 35.097-56.493 63.657-70.853 9.597-4.825 27.667-10.554 38.097-12.079 13.095-1.915 37.293-.7 48.918 2.456 16.681 4.529 32.093 11.599 43.5 19.954l6 4.395 22.408-29.245c12.325-16.085 22.45-29.614 22.5-30.065.217-1.939-20.174-14.968-34.908-22.306-30.117-14.998-56.844-21.267-89.46-20.981-8.547.075-16.665.299-18.04.497m347.5 8.025c-21.56 1.736-41.234 8.646-57.378 20.154-8.339 5.944-21.433 19.014-27.238 27.188-13.568 19.105-20.131 40.458-20.131 65.5 0 31.221 9.496 54.865 31.264 77.843 10.434 11.015 17.628 16.59 28.687 22.233 10.417 5.315 12.543 5.969 71.161 21.885 25.501 6.924 48.817 13.749 51.813 15.167 6.986 3.305 13.556 10.149 17.615 18.352 2.915 5.89 3.204 7.313 3.174 15.618-.03 8.509-.29 9.659-3.778 16.716-4.358 8.819-9.199 13.497-18.689 18.06l-6.5 3.126-86.75.287-86.75.286v75.035l89.75-.357c96.996-.386 95.028-.283 112.25-5.908 30.275-9.888 59.215-38.611 69.569-69.047 4.325-12.713 5.809-22.395 5.794-37.796-.015-15.789-1.074-23.237-5.051-35.5-9.038-27.872-30.77-53.203-56.812-66.22-8.875-4.436-20.184-7.904-70.952-21.758-25.274-6.896-47.847-13.456-50.162-14.577-14.112-6.832-22.915-23.905-20.374-39.516 2.673-16.427 15.072-28.746 31.667-31.464 3.252-.533 33.739-.956 69.071-.959L919 294v-75l-65.25.168c-35.888.093-67.05.313-69.25.49M202 921.5V990h19v-35c0-40.09-.756-36.879 9.852-41.852 4.749-2.227 7.029-2.648 14.325-2.648 9.64 0 12.289 1.195 16.563 7.474 4.159 6.112 4.554 9.365 5.002 41.276l.432 30.75H286l-.008-26.75c-.013-40.135-1.865-51.28-10.075-60.607-5.663-6.434-12.182-8.915-23.417-8.913-7.511.001-10.158.464-16 2.794-3.85 1.536-8.679 3.846-10.73 5.134-2.052 1.288-3.964 2.342-4.25 2.342-.286 0-.52-11.475-.52-25.5V853h-19v68.5m599 0V990h19l.007-35.75.007-35.75 3.385-2.305c9.419-6.413 22.427-8.088 30.634-3.945 3.577 1.806 5.049 3.419 7.462 8.176l3.005 5.926.324 31.824.325 31.824h19.068l-.52-33.25c-.287-18.288-1.01-35.5-1.609-38.25-3.064-14.087-11.705-22.655-24.666-24.459-10.222-1.423-18.09.042-28.672 5.339l-8.75 4.379V853h-19v68.5m-654-60.418c-24.942 1.935-45.558 14.967-54.653 34.547-4.191 9.022-6.628 22.58-5.932 33.009 1.296 19.43 6.887 33.412 17.689 44.241 12.655 12.688 28.826 18.149 53.396 18.034 7.15-.034 15.025-.365 17.5-.737l4.5-.676.29-8.805.289-8.806-8.789.806c-29.189 2.674-45.535-2.415-56.374-17.552-10.338-14.436-11.564-40.465-2.622-55.643 8.758-14.865 21.26-20.858 43.706-20.949 6.875-.028 14.412.292 16.75.711l4.25.762v-8.993c0-8.516-.119-9.019-2.25-9.478-3.779-.815-19.812-1.087-27.75-.471m586 .023c-26.929 1.916-41.838 12.85-42.81 31.395-.523 9.971 2.347 17.212 9.723 24.528 5.622 5.577 13.509 9.963 35.087 19.512 10.458 4.628 18.374 9.576 20.492 12.807 5.613 8.567.378 18.436-11.789 22.223-7.155 2.227-27.293 2.98-39.291 1.47-5.351-.673-10.333-1.456-11.071-1.739-1.063-.408-1.341 1.444-1.341 8.945v9.461l7.651.646c15.257 1.29 35.388.716 45.086-1.285 22.663-4.677 34.415-18.975 31.332-38.12-2.226-13.822-7.635-18.726-35.873-32.525-11.933-5.832-23.159-11.711-24.947-13.065-6.947-5.26-8.371-13.871-3.258-19.695 5.042-5.742 14.368-8.111 31.509-8.003 7.7.049 16.64.59 19.866 1.202 3.226.612 6.263.867 6.75.566.486-.3.884-4.131.884-8.512 0-7.433-.157-8.025-2.342-8.856-3.03-1.152-24.725-1.733-35.658-.955m-205.373 12.603c-.303 1.536-1.318 6.8-2.257 11.699l-1.706 8.907-6.878 3.056-6.878 3.056.296 4.537.296 4.537h12.504l-.002 21.678c-.001 11.922.481 25.197 1.071 29.5 2.037 14.844 8.356 24.198 18.794 27.822 5.403 1.876 20.202 3.085 25.53 2.085l3.688-.692-.292-7.18-.293-7.18-4.5.462c-12.625 1.296-17.504-.315-21.5-7.1-1.849-3.139-2.023-5.508-2.306-31.395l-.307-28H571.5l.294-7.25.294-7.25h-29.025l-.281-11.75-.282-11.75-7.161-.292c-7.13-.291-7.164-.28-7.712 2.5m582.94-1.458c-.203.688-1.11 5.075-2.015 9.75a1452 1452 0 01-2.09 10.641c-.32 1.537-2.211 2.846-6.704 4.64l-6.258 2.498-.302 5.111-.303 5.11h12.918l.4 27.75c.373 25.803.557 28.146 2.627 33.397 2.977 7.549 8.852 14.044 15.16 16.758 5.382 2.315 22.281 3.994 27.363 2.719 2.541-.638 2.637-.923 2.637-7.788v-7.125l-6.288.587c-8.695.812-13.557-.479-17.35-4.608-4.591-4.998-5.362-10.422-5.362-37.739V910h13.418c7.38 0 14.13-.273 15-.607 1.23-.472 1.582-2.135 1.582-7.473v-6.867l-14.75-.276-14.75-.277-.282-11.75-.281-11.75h-7c-4.736 0-7.119.404-7.37 1.25m-768.274 21.726c-8.001 1.221-17.614 6.215-23.721 12.322-11.981 11.981-16.047 28.593-12.076 49.346 3.523 18.414 13.369 29.003 31.575 33.959 7.102 1.933 28.051 2.523 38.179 1.075l5.75-.822v-16.089l-2.75.668c-1.512.368-8.825.916-16.25 1.218-12.269.499-14.032.348-19.332-1.654-10.796-4.08-17.379-12.724-18.419-24.186l-.527-5.813h62.53l-.433-11.25c-.403-10.474-.688-11.778-4.12-18.91-6.039-12.544-15.268-18.908-29.199-20.131-3.3-.29-8.343-.169-11.207.267M455 893.613c-21.601 2.41-37.271 11.804-44.86 26.893-3.991 7.936-5.086 13.116-5.116 24.195-.044 16.83 4.332 28.768 13.678 37.31 7.318 6.688 14.441 9.33 25.298 9.385 7.254.036 9.405-.371 14.67-2.777 3.394-1.552 7.19-3.905 8.435-5.231 2.649-2.819 3.855-1.774 3.88 3.362L471 990h17v-47.433c0-44.318-.115-47.465-1.75-47.928-2.447-.694-27.002-1.5-31.25-1.026m485 .513c-17.964 2.913-33.087 18.686-36.14 37.694-1.841 11.46.103 26.604 4.588 35.731 5.749 11.7 14.193 18.448 27.552 22.019 7.198 1.924 28.271 2.534 38.25 1.108l5.75-.822v-16.089l-2.75.668c-1.513.368-8.825.916-16.25 1.218-12.061.491-14.086.328-19-1.532-3.025-1.144-7.159-3.449-9.187-5.122-4.563-3.763-8.801-12.48-9.537-19.615L922.72 944h31.171c26.099 0 31.261-.233 31.72-1.429 1.027-2.677-1.427-21.052-3.577-26.773-4.241-11.289-14.761-19.737-27.064-21.733-7.251-1.177-7.342-1.176-14.97.061m95.293-.15c-16.797 2.564-31.991 16.607-35.724 33.019-1.951 8.578-1.985 20.376-.086 29.34 3.871 18.269 13.415 28.321 31.588 33.268 7.102 1.933 28.051 2.523 38.179 1.075l5.75-.822v-16.083l-3.25.661c-1.787.364-9.1.908-16.25 1.209-11.771.495-13.567.336-19-1.679-10.953-4.064-18.5-14.524-18.5-25.642V944H1080.257l-.478-10.75c-.716-16.1-5.513-26.531-15.298-33.263-7.994-5.5-18.439-7.651-29.188-6.011m-695.317 15.558c-5.354 1.651-10.568 6.411-13.105 11.966-3.592 7.864-4.544 7.5 19.629 7.5H368v-2.378c0-7.068-6.141-14.992-13.257-17.106-6.134-1.821-8.811-1.818-14.767.018m111.49-.456c-7.086 1.187-11.872 3.391-16.553 7.62-4.454 4.024-6.387 7.236-8.422 13.999-4.467 14.843-1.359 32.408 7.167 40.5 8.821 8.371 24.757 7.23 32.819-2.351l2.523-2.999V909.25l-3.125-.625c-3.853-.771-7.863-.645-14.409.453m489.034-.19c-4.298 1.114-8.66 3.558-11.188 6.267-2.268 2.431-6.252 10.407-6.29 12.595-.017.963 5.028 1.25 21.953 1.25h21.975l-.618-3.25c-1.246-6.553-5.43-12.69-10.426-15.29-3.332-1.734-11.548-2.573-15.406-1.572m92.316.693c-5.442 1.674-10.351 6.186-12.945 11.897-3.585 7.892-4.55 7.522 19.629 7.522h21.5l-.01-2.25c-.016-3.689-4.548-12.299-7.624-14.486-3.218-2.287-9.594-4.285-13.366-4.189-1.375.035-4.608.713-7.184 1.506m-435.401 19.781c-.288.749-.386 4.012-.219 7.25l.304 5.888h63l.294-7.25.294-7.25h-31.576c-25.722 0-31.672.252-32.097 1.362" fill="undefined" fill-rule="evenodd"/></svg>